<svg xmlns="http://www.w3.org/2000/svg" xmlns:xlink="http://www.w3.org/1999/xlink" version="1.1" width="256" height="256" viewBox="0 0 256 256" xml:space="preserve">

<defs>
</defs>
<g style="stroke: none; stroke-width: 0; stroke-dasharray: none; stroke-linecap: butt; stroke-linejoin: miter; stroke-miterlimit: 10; fill: none; fill-rule: nonzero; opacity: 1;" transform="translate(1.4065934065934016 1.4065934065934016) scale(2.81 2.81)" >
	<path d="M 14.235 68.325 L 14.235 68.325 c -4.112 0 -7.477 -3.364 -7.477 -7.477 v -2.681 c 0 -4.112 3.364 -7.477 7.477 -7.477 h 0 c 4.112 0 7.477 3.364 7.477 7.477 v 2.681 C 21.711 64.961 18.347 68.325 14.235 68.325 z" style="stroke: none; stroke-width: 1; stroke-dasharray: none; stroke-linecap: butt; stroke-linejoin: miter; stroke-miterlimit: 10; fill: rgb(240,88,47); fill-rule: nonzero; opacity: 1;" transform=" matrix(1 0 0 1 0 0) " stroke-linecap="round" />
	<path d="M 18.445 69.353 c -1.265 0.655 -2.694 1.032 -4.21 1.032 s -2.945 -0.377 -4.21 -1.032 C 4.372 70.196 0 75.101 0 80.979 v 7.734 C 0 89.421 0.579 90 1.287 90 h 25.896 c 0.708 0 1.287 -0.579 1.287 -1.287 v -7.734 C 28.47 75.101 24.097 70.196 18.445 69.353 z" style="stroke: none; stroke-width: 1; stroke-dasharray: none; stroke-linecap: butt; stroke-linejoin: miter; stroke-miterlimit: 10; fill: rgb(240,88,47); fill-rule: nonzero; opacity: 1;" transform=" matrix(1 0 0 1 0 0) " stroke-linecap="round" />
	<path d="M 45 17.634 L 45 17.634 c -4.112 0 -7.477 -3.364 -7.477 -7.477 V 7.477 C 37.523 3.364 40.888 0 45 0 h 0 c 4.112 0 7.477 3.364 7.477 7.477 v 2.681 C 52.477 14.27 49.112 17.634 45 17.634 z" style="stroke: none; stroke-width: 1; stroke-dasharray: none; stroke-linecap: butt; stroke-linejoin: miter; stroke-miterlimit: 10; fill: rgb(113,212,86); fill-rule: nonzero; opacity: 1;" transform=" matrix(1 0 0 1 0 0) " stroke-linecap="round" />
	<path d="M 49.21 18.662 c -1.265 0.655 -2.694 1.032 -4.21 1.032 s -2.945 -0.377 -4.21 -1.032 c -5.653 0.844 -10.025 5.749 -10.025 11.627 v 7.734 c 0 0.708 0.579 1.287 1.287 1.287 h 25.896 c 0.708 0 1.287 -0.579 1.287 -1.287 v -7.734 C 59.235 24.411 54.863 19.505 49.21 18.662 z" style="stroke: none; stroke-width: 1; stroke-dasharray: none; stroke-linecap: butt; stroke-linejoin: miter; stroke-miterlimit: 10; fill: rgb(113,212,86); fill-rule: nonzero; opacity: 1;" transform=" matrix(1 0 0 1 0 0) " stroke-linecap="round" />
	<path d="M 75.765 68.325 L 75.765 68.325 c -4.112 0 -7.477 -3.364 -7.477 -7.477 v -2.681 c 0 -4.112 3.364 -7.477 7.477 -7.477 h 0 c 4.112 0 7.477 3.364 7.477 7.477 v 2.681 C 83.242 64.961 79.877 68.325 75.765 68.325 z" style="stroke: none; stroke-width: 1; stroke-dasharray: none; stroke-linecap: butt; stroke-linejoin: miter; stroke-miterlimit: 10; fill: rgb(110,177,225); fill-rule: nonzero; opacity: 1;" transform=" matrix(1 0 0 1 0 0) " stroke-linecap="round" />
	<path d="M 79.975 69.353 c -1.265 0.655 -2.694 1.032 -4.21 1.032 s -2.945 -0.377 -4.21 -1.032 c -5.653 0.844 -10.025 5.749 -10.025 11.627 v 7.734 c 0 0.708 0.579 1.287 1.287 1.287 h 25.896 C 89.421 90 90 89.421 90 88.713 v -7.734 C 90 75.101 85.628 70.196 79.975 69.353 z" style="stroke: none; stroke-width: 1; stroke-dasharray: none; stroke-linecap: butt; stroke-linejoin: miter; stroke-miterlimit: 10; fill: rgb(110,177,225); fill-rule: nonzero; opacity: 1;" transform=" matrix(1 0 0 1 0 0) " stroke-linecap="round" />
	<path d="M 77.255 31.117 h -9.729 c -0.258 0 -0.468 -0.21 -0.468 -0.468 v -2.978 c 0 -0.258 0.21 -0.468 0.468 -0.468 h 9.729 c 0.258 0 0.468 0.21 0.468 0.468 v 2.978 C 77.723 30.907 77.514 31.117 77.255 31.117 z" style="stroke: none; stroke-width: 1; stroke-dasharray: none; stroke-linecap: butt; stroke-linejoin: miter; stroke-miterlimit: 10; fill: rgb(100,107,121); fill-rule: nonzero; opacity: 1;" transform=" matrix(1 0 0 1 0 0) " stroke-linecap="round" />
	<path d="M 77.723 27.807 v 16.588 c 0 0.334 -0.271 0.605 -0.605 0.605 h -2.705 c -0.334 0 -0.605 -0.271 -0.605 -0.605 V 27.807 c 0 -0.334 0.271 -0.605 0.605 -0.605 h 2.705 C 77.453 27.203 77.723 27.473 77.723 27.807 z" style="stroke: none; stroke-width: 1; stroke-dasharray: none; stroke-linecap: butt; stroke-linejoin: miter; stroke-miterlimit: 10; fill: rgb(100,107,121); fill-rule: nonzero; opacity: 1;" transform=" matrix(1 0 0 1 0 0) " stroke-linecap="round" />
	<path d="M 63.27 29.483 l 5.762 5.762 c 0.171 0.171 0.449 0.171 0.621 0 l 2.147 -2.147 c 0.171 -0.171 0.171 -0.449 0 -0.621 l -5.761 -5.762 c -0.171 -0.171 -0.449 -0.171 -0.621 0 l -2.147 2.147 C 63.099 29.034 63.099 29.312 63.27 29.483 z" style="stroke: none; stroke-width: 1; stroke-dasharray: none; stroke-linecap: butt; stroke-linejoin: miter; stroke-miterlimit: 10; fill: rgb(100,107,121); fill-rule: nonzero; opacity: 1;" transform=" matrix(1 0 0 1 0 0) " stroke-linecap="round" />
	<path d="M 63.27 28.876 l 5.762 -5.762 c 0.171 -0.171 0.449 -0.171 0.621 0 l 2.147 2.147 c 0.171 0.171 0.171 0.449 0 0.621 l -5.761 5.762 c -0.171 0.171 -0.449 0.171 -0.621 0 l -2.147 -2.147 C 63.099 29.325 63.099 29.047 63.27 28.876 z" style="stroke: none; stroke-width: 1; stroke-dasharray: none; stroke-linecap: butt; stroke-linejoin: miter; stroke-miterlimit: 10; fill: rgb(100,107,121); fill-rule: nonzero; opacity: 1;" transform=" matrix(1 0 0 1 0 0) " stroke-linecap="round" />
	<path d="M 16.192 27.804 v 16.39 c 0 0.332 -0.269 0.601 -0.601 0.601 h -2.712 c -0.332 0 -0.601 -0.269 -0.601 -0.601 v -16.39 c 0 -0.332 0.269 -0.601 0.601 -0.601 h 2.712 C 15.923 27.203 16.192 27.472 16.192 27.804 z" style="stroke: none; stroke-width: 1; stroke-dasharray: none; stroke-linecap: butt; stroke-linejoin: miter; stroke-miterlimit: 10; fill: rgb(100,107,121); fill-rule: nonzero; opacity: 1;" transform=" matrix(1 0 0 1 0 0) " stroke-linecap="round" />
	<path d="M 22.474 31.117 h -9.729 c -0.258 0 -0.468 -0.21 -0.468 -0.468 v -2.978 c 0 -0.258 0.21 -0.468 0.468 -0.468 h 9.729 c 0.258 0 0.468 0.21 0.468 0.468 v 2.978 C 22.942 30.907 22.733 31.117 22.474 31.117 z" style="stroke: none; stroke-width: 1; stroke-dasharray: none; stroke-linecap: butt; stroke-linejoin: miter; stroke-miterlimit: 10; fill: rgb(100,107,121); fill-rule: nonzero; opacity: 1;" transform=" matrix(1 0 0 1 0 0) " stroke-linecap="round" />
	<path d="M 14.582 46.42 l 5.762 -5.762 c 0.171 -0.171 0.171 -0.449 0 -0.621 l -2.147 -2.147 c -0.171 -0.171 -0.449 -0.171 -0.621 0 l -5.762 5.762 c -0.171 0.171 -0.171 0.449 0 0.621 l 2.147 2.147 C 14.132 46.592 14.41 46.592 14.582 46.42 z" style="stroke: none; stroke-width: 1; stroke-dasharray: none; stroke-linecap: butt; stroke-linejoin: miter; stroke-miterlimit: 10; fill: rgb(100,107,121); fill-rule: nonzero; opacity: 1;" transform=" matrix(1 0 0 1 0 0) " stroke-linecap="round" />
	<path d="M 13.974 46.42 l -5.762 -5.762 c -0.171 -0.171 -0.171 -0.449 0 -0.621 l 2.147 -2.147 c 0.171 -0.171 0.449 -0.171 0.621 0 l 5.762 5.762 c 0.171 0.171 0.171 0.449 0 0.621 l -2.147 2.147 C 14.424 46.592 14.146 46.592 13.974 46.42 z" style="stroke: none; stroke-width: 1; stroke-dasharray: none; stroke-linecap: butt; stroke-linejoin: miter; stroke-miterlimit: 10; fill: rgb(100,107,121); fill-rule: nonzero; opacity: 1;" transform=" matrix(1 0 0 1 0 0) " stroke-linecap="round" />
	<path d="M 34.484 81.614 H 51.45 c 0.338 0 0.611 -0.274 0.611 -0.611 v -2.692 c 0 -0.338 -0.274 -0.611 -0.611 -0.611 H 34.484 c -0.338 0 -0.611 0.274 -0.611 0.611 v 2.692 C 33.873 81.34 34.146 81.614 34.484 81.614 z" style="stroke: none; stroke-width: 1; stroke-dasharray: none; stroke-linecap: butt; stroke-linejoin: miter; stroke-miterlimit: 10; fill: rgb(100,107,121); fill-rule: nonzero; opacity: 1;" transform=" matrix(1 0 0 1 0 0) " stroke-linecap="round" />
	<path d="M 56.326 79.98 l -5.762 5.762 c -0.171 0.171 -0.449 0.171 -0.621 0 l -2.147 -2.147 c -0.171 -0.171 -0.171 -0.449 0 -0.621 l 5.762 -5.761 c 0.171 -0.171 0.449 -0.171 0.621 0 l 2.147 2.147 C 56.497 79.531 56.497 79.809 56.326 79.98 z" style="stroke: none; stroke-width: 1; stroke-dasharray: none; stroke-linecap: butt; stroke-linejoin: miter; stroke-miterlimit: 10; fill: rgb(100,107,121); fill-rule: nonzero; opacity: 1;" transform=" matrix(1 0 0 1 0 0) " stroke-linecap="round" />
	<path d="M 56.326 79.373 l -5.762 -5.762 c -0.171 -0.171 -0.449 -0.171 -0.621 0 l -2.147 2.147 c -0.171 0.171 -0.171 0.449 0 0.621 l 5.762 5.762 c 0.171 0.171 0.449 0.171 0.621 0 l 2.147 -2.147 C 56.497 79.822 56.497 79.544 56.326 79.373 z" style="stroke: none; stroke-width: 1; stroke-dasharray: none; stroke-linecap: butt; stroke-linejoin: miter; stroke-miterlimit: 10; fill: rgb(100,107,121); fill-rule: nonzero; opacity: 1;" transform=" matrix(1 0 0 1 0 0) " stroke-linecap="round" />
</g>
</svg>